<?xml version="1.0" encoding="UTF-8" standalone="no"?>
<!-- Created with Inkscape (http://www.inkscape.org/) -->

<svg
   version="1.1"
   id="svg2"
   xml:space="preserve"
   width="456.85333"
   height="330.42667"
   viewBox="0 0 456.85333 330.42667"
   sodipodi:docname="LOGO_NOIR_VF.eps"
   xmlns:inkscape="http://www.inkscape.org/namespaces/inkscape"
   xmlns:sodipodi="http://sodipodi.sourceforge.net/DTD/sodipodi-0.dtd"
   xmlns="http://www.w3.org/2000/svg"
   xmlns:svg="http://www.w3.org/2000/svg"><defs
     id="defs6" /><sodipodi:namedview
     id="namedview4"
     pagecolor="#ffffff"
     bordercolor="#666666"
     borderopacity="1.0"
     inkscape:pageshadow="2"
     inkscape:pageopacity="0.0"
     inkscape:pagecheckerboard="0" /><g
     id="g8"
     inkscape:groupmode="layer"
     inkscape:label="ink_ext_XXXXXX"
     transform="matrix(1.3333333,0,0,-1.3333333,0,330.42667)"><g
       id="g10"
       transform="scale(0.1)"><path
         d="m 2376.6,804.109 -345.91,-48.597 -16.6,118.129 345.91,48.589 16.6,-118.121"
         style="fill:#231f20;fill-opacity:1;fill-rule:nonzero;stroke:none"
         id="path12" /><path
         d="m 2325.44,999.422 -322.65,-45.332 -16.6,118.12 322.65,45.34 16.6,-118.128"
         style="fill:#231f20;fill-opacity:1;fill-rule:nonzero;stroke:none"
         id="path14" /><path
         d="m 2310.89,1193.58 -335.15,-47.08 -16.16,115.07 335.12,47.09 16.19,-115.08"
         style="fill:#231f20;fill-opacity:1;fill-rule:nonzero;stroke:none"
         id="path16" /><path
         d="m 1153.39,2185.58 c 131.94,84.61 283.49,143.05 448.61,166.25 569.72,80.06 1101.05,-284.28 1243.14,-828.01 l 115.06,16.17 c -151.45,606.8 -741.45,1014.97 -1374.26,926.03 -257.15,-36.13 -484.77,-149.35 -663.096,-312.83 l 230.546,32.39"
         style="fill:#231f20;fill-opacity:1;fill-rule:nonzero;stroke:none"
         id="path18" /><path
         d="M 2523.14,416.719 C 2360.39,264.898 2151.39,159.602 1914.76,126.34 1543.77,74.1914 1189.14,210.648 947.52,462.148 L 809.906,442.809 C 1075.73,127.238 1492.95,-49.4102 1930.82,12.1406 c 314.91,44.25 585.66,204.0074 775.61,430.3204 l -183.29,-25.742"
         style="fill:#231f20;fill-opacity:1;fill-rule:nonzero;stroke:none"
         id="path20" /><path
         d="m 176.109,1826.86 c 7.289,-51.9 -18.406,-87.92 -67.972,-94.88 -49.5862,-6.97 -84.4847,20.54 -91.7815,72.43 L 0,1920.74 l 30.957,4.37 16.3594,-116.35 c 4.6953,-33.46 26.6758,-50.92 56.8436,-46.67 29.91,4.2 45.738,26.7 40.996,60.42 l -16.347,116.35 30.953,4.34 16.347,-116.34"
         style="fill:#231f20;fill-opacity:1;fill-rule:nonzero;stroke:none"
         id="path22" /><path
         d="m 360.727,1768.93 -117.852,128.66 20.016,-142.42 -30.957,-4.36 -27.911,198.6 30.426,4.28 118.426,-128.87 -20.062,142.71 30.441,4.27 27.914,-198.59 -30.441,-4.28"
         style="fill:#231f20;fill-opacity:1;fill-rule:nonzero;stroke:none"
         id="path24" /><path
         d="m 439.609,1780.01 -27.91,198.6 30.969,4.35 27.914,-198.6 -30.973,-4.35"
         style="fill:#231f20;fill-opacity:1;fill-rule:nonzero;stroke:none"
         id="path26" /><path
         d="m 568.66,1798.14 -101.101,188.31 33.316,4.69 79.336,-153.48 34.496,169.48 32.273,4.54 -46.32,-209.03 -32,-4.51"
         style="fill:#231f20;fill-opacity:1;fill-rule:nonzero;stroke:none"
         id="path28" /><path
         d="m 707.027,1989.44 7.524,-53.6 89.719,12.61 4.21,-30.07 -89.695,-12.6 7.692,-54.8 103.351,14.54 4.235,-30.08 -134.297,-18.87 -27.911,198.6 131.137,18.44 4.231,-30.08 -100.196,-14.09"
         style="fill:#231f20;fill-opacity:1;fill-rule:nonzero;stroke:none"
         id="path30" /><path
         d="m 933.633,1941.14 c 28.336,3.99 42.75,19.34 38.965,46.27 -3.66,26.12 -21.684,36.32 -50.016,32.34 l -43.539,-6.13 11.039,-78.59 z m 12.582,-28.59 c -2.586,-0.64 -5.488,-1.04 -8.356,-1.46 l -43.546,-6.12 8.417,-59.88 -30.957,-4.34 -27.918,198.6 74.512,10.45 c 46.93,6.6 77.418,-14.28 83.483,-57.4 4.47,-31.79 -6.03,-56.08 -28.975,-69.76 l 50.525,-60.59 -35.162,-4.94 -42.023,55.44"
         style="fill:#231f20;fill-opacity:1;fill-rule:nonzero;stroke:none"
         id="path32" /><path
         d="m 1160.71,2064.5 -8.7,-31.33 c -21.77,10.28 -42.46,12.85 -56.38,10.89 -18.08,-2.54 -28.84,-11.59 -26.98,-24.9 6.1,-43.41 101.99,-6.23 111.77,-77.75 4.99,-35.45 -20.81,-61.36 -61.2,-67.03 -28.84,-4.06 -57.92,4.89 -79.44,20.94 l 9.33,30.83 c 21.51,-16.1 46.54,-22.97 66.22,-20.21 21.51,3.02 33.14,13.63 30.98,28.92 -6.22,44.28 -101.92,5.68 -111.85,76.3 -4.77,34.05 19.25,59.14 59.11,64.74 23.88,3.35 48.38,-1.57 67.14,-11.4"
         style="fill:#231f20;fill-opacity:1;fill-rule:nonzero;stroke:none"
         id="path34" /><path
         d="m 1224.47,1890.3 -27.91,198.6 30.95,4.36 27.92,-198.6 -30.96,-4.36"
         style="fill:#231f20;fill-opacity:1;fill-rule:nonzero;stroke:none"
         id="path36" /><path
         d="m 1347.13,2079.41 23.69,-168.53 -30.95,-4.34 -23.69,168.53 -57.99,-8.16 -4.22,30.07 147.17,20.69 4.24,-30.06 -58.25,-8.2"
         style="fill:#231f20;fill-opacity:1;fill-rule:nonzero;stroke:none"
         id="path38" /><path
         d="m 1499.83,2153.51 -26.76,-3.76 21.91,45.92 32.94,-9.85 z m -37.05,-57.85 7.52,-53.61 89.7,12.61 4.22,-30.06 -89.69,-12.62 7.7,-54.78 103.34,14.53 4.23,-30.07 -134.31,-18.87 -27.91,198.6 131.15,18.41 4.23,-30.04 -100.18,-14.1"
         style="fill:#231f20;fill-opacity:1;fill-rule:nonzero;stroke:none"
         id="path40" /><path
         d="m 286.941,1514.7 c -30.711,-3.66 -63.39,-8.92 -93.347,-13.14 5.777,-41.1 14.496,-103.2 20.293,-144.38 l 93.343,13.14 c 71.485,10.03 55.622,154.31 -20.289,144.38 z M 117.832,1093.45 c -23.6328,168.19 -47.2695,336.36 -71.0117,505.31 73.6527,10.34 149.4647,20.99 224.5667,31.54 244.41,33.6 297.172,-341.78 52.851,-376.11 l -94.023,-13.22 18.148,-129.18 c -43.777,-6.14 -87.523,-12.3 -130.531,-18.34"
         style="fill:#231f20;fill-opacity:1;fill-rule:nonzero;stroke:none"
         id="path42" /><path
         d="m 719.492,1483.93 -38.902,-140.94 116.691,16.4 z m 135.547,-229.05 -201.234,-28.28 -20.969,-67.74 -127.617,-17.95 -2.637,18.73 160.328,525.29 56.215,7.9 299.735,-460.63 2.63,-18.74 -127.58,-17.91 -38.871,59.33"
         style="fill:#231f20;fill-opacity:1;fill-rule:nonzero;stroke:none"
         id="path44" /><path
         d="m 1305.13,1433.96 -47.08,335.02 c 41.54,5.84 83.91,11.79 124.74,17.53 l 47.38,-337.13 c 15.64,-111.19 -72.36,-189.05 -177.37,-203.81 -104.25,-14.67 -211.74,35.74 -227.37,146.94 l -47.379,337.13 c 40.869,5.72 83.879,11.78 124.759,17.52 l 47.08,-335.02 c 5.79,-41.11 48.71,-55.69 86.58,-50.39 37.91,5.34 74.43,31.11 68.66,72.21"
         style="fill:#231f20;fill-opacity:1;fill-rule:nonzero;stroke:none"
         id="path46" /><path
         d="m 1661.85,1428.95 185.23,26.04 c 6.09,-43.38 10.24,-72.95 16.31,-116.21 -104.96,-14.75 -212.94,-29.93 -316.42,-44.48 l -71.02,505.31 c 43.76,6.14 86.77,12.18 131.21,18.43 36.73,-261.31 24.46,-173.96 54.69,-389.09"
         style="fill:#231f20;fill-opacity:1;fill-rule:nonzero;stroke:none"
         id="path48" /><path
         d="m 807.031,804.641 3.621,0.519 75.731,304.82 125.017,17.57 2.75,-19.58 -146.302,-525.24 -55.215,-7.761 -287.574,464.251 -2.75,19.6 124.992,17.57 159.73,-271.749"
         style="fill:#231f20;fill-opacity:1;fill-rule:nonzero;stroke:none"
         id="path50" /><path
         d="m 1263.44,953.281 -38.62,-141.769 116.28,16.347 z m 135.43,-230.722 -200.55,-28.188 -20.83,-68.141 -127.18,-17.859 -2.66,18.879 159.17,528.53 55.96,7.88 299.4,-464.09 2.65,-18.898 -127.17,-17.863 -38.79,59.75"
         style="fill:#231f20;fill-opacity:1;fill-rule:nonzero;stroke:none"
         id="path52" /><path
         d="m 1745.38,825.379 184.56,25.922 c 6.15,-43.602 10.33,-73.422 16.44,-116.992 -104.64,-14.688 -212.18,-29.821 -315.37,-44.34 l -71.48,508.691 c 43.58,6.12 86.46,12.15 130.8,18.38 36.95,-263.02 24.6,-175.11 55.05,-391.661"
         style="fill:#231f20;fill-opacity:1;fill-rule:nonzero;stroke:none"
         id="path54" /><path
         d="m 2639.14,1231.8 c -30.64,-3.49 -62.51,-8.78 -93.06,-13.05 5.83,-41.38 12.17,-86.46 17.9,-127.13 l 93.03,13.05 c 70.49,9.91 56.33,136.9 -17.87,127.13 z m 259.61,-344.378 2.63,-18.902 -145.34,-20.43 -108.25,137.461 -67.57,-9.531 21.02,-149.692 c -43.57,-6.137 -87.91,-12.34 -130.07,-18.269 -23.81,169.351 -47.59,338.651 -71.5,508.671 73.4,10.32 148.99,20.95 223.13,31.36 199.91,27.44 270.1,-208.02 153.7,-313.34 l 122.25,-147.328"
         style="fill:#231f20;fill-opacity:1;fill-rule:nonzero;stroke:none"
         id="path56" /><path
         d="m 3221.18,913.441 -128.63,-18.043 -30.02,213.622 -209.48,251.44 -2.76,19.6 140.26,19.73 116.1,-156.33 5.07,0.72 68.51,182.25 140.98,19.82 2.77,-19.59 -132.83,-299.55 30.03,-213.669"
         style="fill:#231f20;fill-opacity:1;fill-rule:nonzero;stroke:none"
         id="path58" /><path
         d="m 1949.02,1356.41 c 0,0 194.74,89.44 195.85,385.92 l 245.59,44.18 c 0,0 -18.97,-313.28 -441.44,-430.1"
         style="fill:#231f20;fill-opacity:1;fill-rule:nonzero;stroke:none"
         id="path60" /><path
         d="m 1494.24,359.34 -20.41,143.172 -43.2,-131.742 -21.08,-2.961 -77.85,114.711 20.13,-143.188 -30.39,-4.281 -26.95,191.679 38.36,5.379 81.15,-118.449 45.08,136.18 38.06,5.371 26.94,-191.68 -29.84,-4.191"
         style="fill:#231f20;fill-opacity:1;fill-rule:nonzero;stroke:none"
         id="path62" /><path
         d="m 1578.17,468.879 c 5.36,-38.07 41.09,-63.75 78.59,-58.457 37.52,5.258 63.97,39.656 58.62,77.769 -5.35,38.028 -40.18,63.278 -77.7,58.02 -37.79,-5.32 -64.85,-39.262 -59.51,-77.332 z m 170.33,23.93 c 7.72,-54.758 -30.69,-103.45 -87.92,-111.5 -57.24,-8.028 -107.58,28.171 -115.27,82.972 -7.73,55.008 30.79,102.867 88.02,110.91 57.22,8.047 107.48,-27.613 115.17,-82.382"
         style="fill:#231f20;fill-opacity:1;fill-rule:nonzero;stroke:none"
         id="path64" /><path
         d="m 1930.87,420.711 -121.46,123.098 19.31,-137.457 -32.32,-4.543 -26.93,191.66 31.77,4.48 122.04,-123.289 -19.34,137.699 31.77,4.469 26.93,-191.648 -31.77,-4.469"
         style="fill:#231f20;fill-opacity:1;fill-rule:nonzero;stroke:none"
         id="path66" /><path
         d="m 2060.46,604.762 22.87,-162.621 -32.34,-4.539 -22.84,162.628 -60.53,-8.5 -4.05,29.02 153.61,21.59 4.09,-29.012 -60.81,-8.566"
         style="fill:#231f20;fill-opacity:1;fill-rule:nonzero;stroke:none"
         id="path68" /><path
         d="m 2191.83,545.91 42.75,5.988 c 29.57,4.153 44.5,19.114 40.83,45.153 -3.54,25.148 -21.92,34.84 -51.49,30.687 l -42.72,-5.988 z m 29.36,111.039 c 48.2,6.789 79.22,-13.121 85.06,-54.801 6.1,-43.207 -18.03,-72.289 -66.24,-79.089 l -44.09,-6.18 8.11,-57.789 -32.31,-4.531 -26.92,191.652 76.39,10.738"
         style="fill:#231f20;fill-opacity:1;fill-rule:nonzero;stroke:none"
         id="path70" /><path
         d="m 2365.43,647.621 7.28,-51.73 93.64,13.16 4.08,-29.031 -93.68,-13.161 7.44,-52.828 107.9,15.149 4.09,-29.032 -140.21,-19.679 -26.93,191.652 136.91,19.231 4.06,-29.024 -104.58,-14.707"
         style="fill:#231f20;fill-opacity:1;fill-rule:nonzero;stroke:none"
         id="path72" /><path
         d="m 2646.73,551.191 4.1,-29.293 -115.27,-16.207 -26.93,191.68 32.3,4.539 22.82,-162.371 82.98,11.652"
         style="fill:#231f20;fill-opacity:1;fill-rule:nonzero;stroke:none"
         id="path74" /><path
         d="m 2792.92,571.719 4.12,-29.278 -115.3,-16.222 -26.93,191.691 32.3,4.531 22.83,-162.371 82.98,11.649"
         style="fill:#231f20;fill-opacity:1;fill-rule:nonzero;stroke:none"
         id="path76" /><path
         d="m 2827.92,546.781 -26.93,191.641 32.32,4.578 26.93,-191.68 -32.32,-4.539"
         style="fill:#231f20;fill-opacity:1;fill-rule:nonzero;stroke:none"
         id="path78" /><path
         d="m 2920.04,725.59 7.28,-51.738 93.64,13.16 4.08,-29.051 -93.64,-13.172 7.4,-52.801 107.9,15.153 4.09,-29.051 -140.2,-19.692 -26.92,191.68 136.9,19.242 4.09,-29.031 -104.62,-14.699"
         style="fill:#231f20;fill-opacity:1;fill-rule:nonzero;stroke:none"
         id="path80" /><path
         d="m 3155.75,681.379 c 29.57,4.152 44.8,19.109 41.12,45.152 -3.54,25.188 -22.2,34.84 -51.77,30.688 l -45.47,-6.399 10.66,-75.851 z m 12.8,-27.52 c -2.7,-0.668 -5.69,-1.078 -8.71,-1.507 l -45.47,-6.403 8.12,-57.758 -32.32,-4.562 -26.93,191.68 77.77,10.941 c 49.01,6.879 80.55,-12.969 86.4,-54.609 4.31,-30.661 -6.85,-54.282 -30.96,-67.743 l 52,-58.007 -36.68,-5.18 -43.22,53.148"
         style="fill:#231f20;fill-opacity:1;fill-rule:nonzero;stroke:none"
         id="path82" /><path
         d="m 3425.66,691.59 c 5.05,-36.121 -15.65,-64.59 -54.29,-70 -21.27,-2.981 -44.59,2.16 -61.03,12.769 l 7.49,28 c 14.39,-11.16 31.63,-16.031 47.88,-13.73 24.24,3.383 36.56,18.59 33.72,38.699 -2.92,20.953 -18.86,29.641 -43.31,26.231 l -23.32,-3.289 -2.65,18.742 39.26,60.84 -71.38,-10.012 -4.28,28.898 105.2,14.774 2.87,-20.371 -43.07,-67 9.5,0.449 c 30.38,1.199 53.1,-14.449 57.41,-45"
         style="fill:#231f20;fill-opacity:1;fill-rule:nonzero;stroke:none"
         id="path84" /></g></g></svg>
